<svg xmlns="http://www.w3.org/2000/svg" viewBox="0 0 100 100">
  <rect x="10" y="20" width="80" height="70" rx="8" fill="#4285f4"/>
  <rect x="10" y="20" width="80" height="18" rx="8" fill="#1a73e8"/>
  <rect x="10" y="30" width="80" height="8" fill="#1a73e8"/>
  <circle cx="30" cy="28" r="4" fill="#fff"/>
  <circle cx="70" cy="28" r="4" fill="#fff"/>
  <rect x="25" cy="8" width="4" height="20" rx="2" fill="#5f6368"/>
  <rect x="71" y="8" width="4" height="20" rx="2" fill="#5f6368"/>
  <rect x="20" y="50" width="12" height="12" rx="2" fill="#fff"/>
  <rect x="44" y="50" width="12" height="12" rx="2" fill="#ea4335"/>
  <rect x="68" y="50" width="12" height="12" rx="2" fill="#fff"/>
  <rect x="20" y="70" width="12" height="12" rx="2" fill="#34a853"/>
  <rect x="44" y="70" width="12" height="12" rx="2" fill="#fff"/>
  <rect x="68" y="70" width="12" height="12" rx="2" fill="#fbbc04"/>
</svg>
